<svg xmlns="http://www.w3.org/2000/svg" width="200" height="200" viewBox="0 0 200 200">
  <defs>
    <linearGradient id="leaf1" x1="0" y1="0" x2="1" y2="1">
      <stop offset="0" stop-color="#8fa958"></stop>
      <stop offset="1" stop-color="#4b5320"></stop>
    </linearGradient>
    <linearGradient id="leaf2" x1="1" y1="0" x2="0" y2="1">
      <stop offset="0" stop-color="#b6ca7d"></stop>
      <stop offset="1" stop-color="#5f6b2b"></stop>
    </linearGradient>
  </defs>
  <g fill="none" stroke="none">
    <path d="M28 160c48-10 85-48 104-110 2-6-4-9-9-6C75 62 44 100 28 146c-2 6 0 9 0 14z" fill="url(#leaf1)"></path>
    <path d="M58 168c30-7 54-31 66-70 1-5-4-8-8-5-28 18-46 42-56 72-2 5 0 6 1 3z" fill="url(#leaf2)"></path>
  </g>
</svg>
